<svg id="Capa_1" data-name="Capa 1" xmlns="http://www.w3.org/2000/svg" viewBox="0 0 30 30"><defs><style>.cls-1{fill:#bd0202;}.cls-2{fill:#fff;}</style></defs><circle class="cls-1" cx="15" cy="15" r="11.16"/><g id="_34hbmL.tif" data-name="34hbmL.tif"><path class="cls-2" d="M15,8.17l2.75.05A4.46,4.46,0,0,1,20,8.81a3.42,3.42,0,0,1,1.64,2.4,13.26,13.26,0,0,1,.15,1.89c0,1.35,0,2.71,0,4.06a6.55,6.55,0,0,1-.27,2.11,3.43,3.43,0,0,1-2.75,2.39,10.88,10.88,0,0,1-1.89.16c-1.35,0-2.7,0-4,0a6.57,6.57,0,0,1-2.11-.26A3.43,3.43,0,0,1,8.35,18.8a10.68,10.68,0,0,1-.16-1.88c0-1.36,0-2.71,0-4.07a6.58,6.58,0,0,1,.27-2.11,3.44,3.44,0,0,1,2.75-2.39A11.94,11.94,0,0,1,13.1,8.2c.64,0,1.27,0,1.91,0Zm5.6,6.73h0c0-.54,0-1.08,0-1.62s0-1-.08-1.55a2.3,2.3,0,0,0-1.94-2.16,11.19,11.19,0,0,0-1.83-.14c-1.15,0-2.31,0-3.47,0a12.42,12.42,0,0,0-1.72.11,2.23,2.23,0,0,0-1.93,1.7,4,4,0,0,0-.15,1c0,1.24-.05,2.47,0,3.71,0,.78,0,1.57.09,2.35a2.28,2.28,0,0,0,2,2.19,12.05,12.05,0,0,0,1.81.13c1.14,0,2.28,0,3.42,0,.52,0,1.05,0,1.57-.09A2.51,2.51,0,0,0,19.61,20a2.57,2.57,0,0,0,.92-2C20.58,17,20.59,15.94,20.61,14.9Z"/><path class="cls-2" d="M18.5,15A3.5,3.5,0,1,1,15,11.5,3.49,3.49,0,0,1,18.5,15ZM15,17.28A2.28,2.28,0,1,0,12.73,15,2.29,2.29,0,0,0,15,17.28Z"/><path class="cls-2" d="M19.46,11.36a.82.82,0,1,1-1.64,0,.82.82,0,0,1,1.64,0Z"/></g></svg>