<svg id="Capa_1" data-name="Capa 1" xmlns="http://www.w3.org/2000/svg" viewBox="0 0 30 30"><defs><style>.cls-1{fill:#bd0202;}.cls-2{fill:#f1f2f2;}</style></defs><circle class="cls-1" cx="15" cy="15" r="11.16" transform="translate(-3.06 26.13) rotate(-76.65)"/><path class="cls-2" d="M21.41,15.89v4.44H18.84V16.19c0-1-.37-1.75-1.31-1.75a1.42,1.42,0,0,0-1.32.94,1.93,1.93,0,0,0-.08.63v4.32H13.55s0-7,0-7.74h2.58v1.09l0,0h0v0a2.56,2.56,0,0,1,2.32-1.27c1.69,0,3,1.1,3,3.48Zm-10.55-7A1.35,1.35,0,0,0,9.4,10.19a1.33,1.33,0,0,0,1.42,1.34h0a1.34,1.34,0,1,0,0-2.68ZM9.55,20.33h2.58V12.59H9.55Zm0,0"/></svg>