<svg id="Capa_1" data-name="Capa 1" xmlns="http://www.w3.org/2000/svg" viewBox="0 0 30 30"><defs><style>.cls-1{fill:#bd0202;}.cls-2{fill:#f1f2f2;}</style></defs><path class="cls-1" d="M3.84,15A11.16,11.16,0,1,1,15,26.16,11.16,11.16,0,0,1,3.84,15Z"/><path class="cls-2" d="M13.72,14.56A1.44,1.44,0,0,0,15,13a2.11,2.11,0,0,0-2.33-2.19H8.38V19h4.27a2.44,2.44,0,0,0,2.61-2.42S15.37,14.56,13.72,14.56Zm-3.46-2.29h2.39s.58,0,.58.85-.34,1-.73,1H10.26Zm2.28,5.29H10.26V15.37h2.39s.87,0,.87,1.12C13.52,17.44,12.88,17.55,12.54,17.56Z"/><rect class="cls-2" x="16.97" y="11.29" width="3.39" height="1.01"/><path class="cls-2" d="M18.74,12.9a3.08,3.08,0,0,0-3.15,3.15,2.91,2.91,0,0,0,3.15,3.14s2.81.16,2.81-2.18H20.11s.05.88-1.32.88a1.34,1.34,0,0,1-1.45-1.43H21.6S22.07,12.9,18.74,12.9Zm-1.41,2.47a1.46,1.46,0,0,1,1.44-1.27A1.23,1.23,0,0,1,20,15.37Z"/></svg>